<svg xmlns:inkscape="http://www.inkscape.org/namespaces/inkscape" xmlns:sodipodi="http://sodipodi.sourceforge.net/DTD/sodipodi-0.dtd" xmlns="http://www.w3.org/2000/svg" xmlns:svg="http://www.w3.org/2000/svg" version="1.1" id="svg1" sodipodi:docname="Logo_BW.svg" inkscape:version="1.4 (86a8ad7, 2024-10-11)" viewBox="374.77 291.29 274.71 479.04">
  <defs id="defs1"/>
  <sodipodi:namedview id="namedview1" pagecolor="#ffffff" bordercolor="#000000" borderopacity="0.25" inkscape:showpageshadow="2" inkscape:pageopacity="0.0" inkscape:pagecheckerboard="0" inkscape:deskcolor="#d1d1d1" inkscape:zoom="1.0219903" inkscape:cx="584.15429" inkscape:cy="523.97759" inkscape:window-width="1280" inkscape:window-height="658" inkscape:window-x="-6" inkscape:window-y="-6" inkscape:window-maximized="1" inkscape:current-layer="svg1"/>
  <g inkscape:groupmode="layer" id="layer1" inkscape:label="sketch" style="display:inline;opacity:1">
    <path id="path4" style="fill:#000000;fill-opacity:1;stroke:none;stroke-width:0.413;stroke-linecap:round;stroke-linejoin:round;stroke-dasharray:none;stroke-opacity:1" d="m 502.31298,291.28662 c -17.3402,27.45531 -16.04231,36.86007 -20.19922,53.95117 -16.02584,-17.43491 -55.41383,-36.2455 -65.49024,-41.05469 0,0 7.12864,59.96338 23.99024,70.95508 0.27329,-0.2766 0.54553,-0.53572 0.81836,-0.80664 -27.82666,29.08647 -31.12418,61.64033 -64.41407,76.47656 -0.82642,0.15785 -1.4488,0.47389 -1.73437,1.02344 -4.15855,10.02945 18.10096,25.78718 29.35351,27.74414 11.25255,1.95697 25.93081,4.40314 59.19922,-0.97852 23.48359,-2.69082 38.64844,1.95704 38.64844,1.95704 0,0 -24.94982,-15.16652 -57.48437,-15.9004 -23.97283,0 -40.97334,1.7709 -45.01758,-4.59765 -0.0417,-0.0366 -0.0924,-0.0728 -0.13477,-0.10938 74.85622,-44.58534 133.29166,-35.54163 163.44141,9.71094 4.13274,20.3129 -12.80108,63.38832 -85.45508,88.25195 -70.00546,25.52489 -81.22508,70.92941 -77.93555,107.75977 2.30806,25.84153 26.44688,118.86438 161.29102,102.81055 -0.0266,-0.001 -0.0516,-0.005 -0.0781,-0.006 0.0281,-0.002 0.0539,-3.2e-4 0.082,-0.002 C 455.75429,753.123 463.05802,663.52191 535.30712,660.0874 c 144.46282,-6.86733 138.88578,-179.15626 55.1875,-247.25586 0.0215,0.0338 0.043,0.0775 0.0644,0.11133 -11.67179,-13.53682 -25.56226,-23.40429 -37.55664,-30.2168 4.33413,-54.33587 -50.68945,-91.43945 -50.68945,-91.43945 z m -16.30664,103.39844 c 1.34818,0.0135 2.74786,0.0832 4.19921,0.21289 -8.47568,7.43784 -8.79274,12.95928 -15.56836,18.67968 -2.20159,1.71235 -10.20524,6.57446 -22.48632,3.46094 0,0 6.44245,-22.62851 33.85547,-22.35351 z"/>
  </g>
</svg>