<svg xmlns:inkscape="http://www.inkscape.org/namespaces/inkscape" xmlns:sodipodi="http://sodipodi.sourceforge.net/DTD/sodipodi-0.dtd" xmlns:xlink="http://www.w3.org/1999/xlink" xmlns="http://www.w3.org/2000/svg" xmlns:svg="http://www.w3.org/2000/svg" version="1.1" id="svg1" sodipodi:docname="Logo_color_full.svg" inkscape:version="1.4 (86a8ad7, 2024-10-11)" viewBox="371.31 289.21 274.71 479.04">
  <defs id="defs1">
    <linearGradient id="linearGradient10" inkscape:collect="always">
      <stop style="stop-color:#ff7e05;stop-opacity:1;" offset="0" id="stop10"/>
      <stop style="stop-color:#fa7006;stop-opacity:1;" offset="0.10135651" id="stop17"/>
      <stop style="stop-color:#f64408;stop-opacity:1;" offset="0.36742073" id="stop16"/>
      <stop style="stop-color:#d02e0e;stop-opacity:1;" offset="0.59615904" id="stop14"/>
      <stop style="stop-color:#c01a0e;stop-opacity:1;" offset="1" id="stop11"/>
    </linearGradient>
    <linearGradient id="linearGradient7" inkscape:collect="always">
      <stop style="stop-color:#20b6ac;stop-opacity:1;" offset="0" id="stop7"/>
      <stop style="stop-color:#16364b;stop-opacity:1;" offset="0.43980742" id="stop15"/>
      <stop style="stop-color:#002047;stop-opacity:1;" offset="0.65213263" id="stop18"/>
      <stop style="stop-color:#001c3d;stop-opacity:1;" offset="0.86445785" id="stop8"/>
    </linearGradient>
    <linearGradient inkscape:collect="always" xlink:href="#linearGradient10" id="linearGradient11" x1="457.25671" y1="362.7067" x2="624.10278" y2="510.94443" gradientUnits="userSpaceOnUse"/>
    <radialGradient inkscape:collect="always" xlink:href="#linearGradient7" id="radialGradient16" cx="397.39261" cy="576.44446" fx="397.39261" fy="576.44446" r="87.577477" gradientTransform="matrix(1.4770367,1.9137658,-2.4265583,1.8728072,1201.7232,-1284.2108)" gradientUnits="userSpaceOnUse"/>
  </defs>
  <sodipodi:namedview id="namedview1" pagecolor="#ffffff" bordercolor="#000000" borderopacity="0.25" inkscape:showpageshadow="2" inkscape:pageopacity="0.0" inkscape:pagecheckerboard="0" inkscape:deskcolor="#d1d1d1" inkscape:zoom="0.51099513" inkscape:cx="345.40446" inkscape:cy="409.98433" inkscape:window-width="1280" inkscape:window-height="658" inkscape:window-x="-6" inkscape:window-y="-6" inkscape:window-maximized="1" inkscape:current-layer="svg1"/>
  <g inkscape:groupmode="layer" id="layer1" inkscape:label="sketch" style="display:inline;opacity:1">
    <path style="fill:url(#radialGradient16);fill-opacity:1;stroke:none;stroke-width:0.413;stroke-linecap:round;stroke-linejoin:round;stroke-dasharray:none;stroke-opacity:1" d="m 557.99579,462.19951 c 8.80634,16.87883 -3.69163,66.28091 -83.61983,93.63392 -70.00546,25.52489 -81.22643,70.92989 -77.9369,107.76025 2.30806,25.84153 26.447,118.86484 161.29114,102.81101 -73.38622,-3.18008 -99.45327,-69.67376 -95.4534,-97.95288 6.23835,-44.42408 44.07757,-66.66393 76.50166,-98.60397 31.90518,-23.98328 43.68812,-72.90792 19.21733,-107.64833 z" id="path4" sodipodi:nodetypes="ccscccc"/>
    <path style="fill:#12324a;fill-opacity:1;stroke:none;stroke-width:3.313;stroke-linecap:round;stroke-linejoin:round;stroke-dasharray:none;stroke-opacity:1" d="m 413.1644,302.1066 c 0,0 7.12847,59.96453 23.99007,70.95623 22.97712,-23.25519 41.32367,-29.12609 41.32367,-29.12609 C 465.024,325.59019 423.92771,307.24363 413.1644,302.1066 Z" id="path6" sodipodi:nodetypes="cccc" inkscape:label="ear 1"/>
    <path style="fill:#12324a;fill-opacity:1;stroke:none;stroke-width:3.313;stroke-linecap:round;stroke-linejoin:round;stroke-dasharray:none;stroke-opacity:1" d="m 498.85405,289.21081 c 0,0 55.02552,37.10582 50.68844,91.44382 -7.07091,-3.92994 -27.856,-12.56814 -27.856,-12.56814 z" id="path2" sodipodi:nodetypes="cccc" inkscape:label="ear 2"/>
    <path style="fill:url(#linearGradient11);fill-opacity:1;stroke:none;stroke-width:3.313;stroke-linecap:round;stroke-linejoin:round;stroke-dasharray:none;stroke-opacity:1" d="m 498.85405,289.21081 c 11.74179,38.16083 22.83244,78.87568 22.83244,78.87568 0,0 86.16939,26.03576 90.37582,103.83295 3.29741,60.98491 -2.94182,98.04777 -81.26848,126.3644 -6.81624,5.19549 -26.33962,8.70492 -55.47705,24.91943 13.53385,-17.47238 25.32895,-29.09452 45.03769,-43.56489 13.83784,-11.76216 28.53086,-25.96749 38.60274,-47.10077 10.07189,-21.13328 11.3713,-44.35127 2.57326,-62.37657 -29.63824,-47.5196 -88.92323,-57.7305 -165.2449,-12.23104 -17.09137,-11.48194 -24.04163,-8.59231 -24.04163,-8.59231 46.47794,-19.56966 35.78343,-72.62177 106.2342,-105.40095 4.40317,-17.6127 2.76322,-26.83917 20.37591,-54.72593 z" id="path1" sodipodi:nodetypes="ccscccsccccc" inkscape:label="orange"/>
    <path style="fill:#001c3d;fill-opacity:1;stroke:none;stroke-width:0.413;stroke-linecap:round;stroke-linejoin:round;stroke-dasharray:none;stroke-opacity:1" d="m 587.03429,410.75498 c 83.69828,68.0996 89.27587,240.39021 -55.18695,247.25754 -72.2491,3.43451 -79.55164,93.03506 25.88791,108.38422 -132.3428,7.69896 -153.53652,-123.28822 -64.3881,-155.45048 63.3433,-30.27607 104.35386,-32.0047 116.62094,-107.22333 4.70604,-33.24967 -9.55225,-71.93595 -22.9338,-92.96795 z" id="path3" sodipodi:nodetypes="cscccc"/>
    <path style="fill:#072748;fill-opacity:1;stroke:none;stroke-width:2.013;stroke-linecap:round;stroke-linejoin:round;stroke-dasharray:none;stroke-opacity:1" d="m 371.8244,449.75618 c -4.15855,10.02945 18.10104,25.78651 29.35359,27.74347 11.25255,1.95697 25.9298,4.40318 59.19821,-0.97848 23.48359,-2.69082 38.65008,1.95697 38.65008,1.95697 0,0 -24.95132,-15.16648 -57.48587,-15.90035 -23.97283,0 -40.97339,1.77142 -45.01763,-4.59713 -6.8984,-6.05177 -22.77618,-11.92346 -24.69838,-8.22448 z" id="path5" sodipodi:nodetypes="csccccc" inkscape:label="nose"/>
    <path style="fill:#072748;fill-opacity:1;stroke:none;stroke-width:3.313;stroke-linecap:round;stroke-linejoin:round;stroke-dasharray:none;stroke-opacity:1" d="m 448.69189,414.96216 c 0,0 7.09189,-24.90811 38.05406,-22.14054 -8.47568,7.43784 -8.79195,12.96068 -15.56757,18.68108 -2.20159,1.71235 -10.20541,6.57298 -22.48649,3.45946 z" id="path7" sodipodi:nodetypes="cccc" inkscape:label="eye"/>
  </g>
</svg>